<?xml version="1.0" encoding="UTF-8" standalone="no"?>
<!DOCTYPE svg PUBLIC "-//W3C//DTD SVG 1.1//EN"
 "http://www.w3.org/Graphics/SVG/1.1/DTD/svg11.dtd">
<!-- Generated by graphviz version 9.0.0 (20230911.1827)
 -->
<!-- Pages: 1 -->
<svg width="745pt" height="483pt"
 viewBox="0.00 0.00 744.72 482.75" xmlns="http://www.w3.org/2000/svg" xmlns:xlink="http://www.w3.org/1999/xlink">
<g id="graph0" class="graph" transform="scale(1 1) rotate(0) translate(4 478.75)">
<polygon fill="white" stroke="none" points="-4,4 -4,-478.75 740.72,-478.75 740.72,4 -4,4"/>
<!-- 0 -->
<g id="node1" class="node">
<title>0</title>
<ellipse fill="none" stroke="black" cx="554.64" cy="-18" rx="48.07" ry="18"/>
<text text-anchor="middle" x="554.64" y="-12.57" font-family="Times New Roman,serif" font-size="14.00">Exit(false)</text>
</g>
<!-- 1 -->
<g id="node2" class="node">
<title>1</title>
<ellipse fill="none" stroke="black" cx="245.64" cy="-18" rx="45.08" ry="18"/>
<text text-anchor="middle" x="245.64" y="-12.57" font-family="Times New Roman,serif" font-size="14.00">Exit(true)</text>
</g>
<!-- 2 -->
<g id="node3" class="node">
<title>2</title>
<ellipse fill="none" stroke="black" cx="355.64" cy="-456.75" rx="43.08" ry="18"/>
<text text-anchor="middle" x="355.64" y="-451.32" font-family="Times New Roman,serif" font-size="14.00">s &lt; 1351</text>
</g>
<!-- 3 -->
<g id="node4" class="node">
<title>3</title>
<ellipse fill="none" stroke="black" cx="408.64" cy="-369" rx="43.08" ry="18"/>
<text text-anchor="middle" x="408.64" y="-363.57" font-family="Times New Roman,serif" font-size="14.00">a &lt; 2006</text>
</g>
<!-- 2&#45;&gt;3 -->
<g id="edge1" class="edge">
<title>2&#45;&gt;3</title>
<path fill="none" stroke="black" d="M366.11,-438.81C373.59,-426.71 383.79,-410.2 392.33,-396.39"/>
<polygon fill="black" stroke="black" points="395.12,-398.54 397.4,-388.19 389.16,-394.86 395.12,-398.54"/>
<text text-anchor="middle" x="397.14" y="-407.45" font-family="Times New Roman,serif" font-size="14.00">true</text>
</g>
<!-- 5 -->
<g id="node6" class="node">
<title>5</title>
<ellipse fill="none" stroke="black" cx="304.64" cy="-369" rx="43.08" ry="18"/>
<text text-anchor="middle" x="304.64" y="-363.57" font-family="Times New Roman,serif" font-size="14.00">s &gt; 2770</text>
</g>
<!-- 2&#45;&gt;5 -->
<g id="edge3" class="edge">
<title>2&#45;&gt;5</title>
<path fill="none" stroke="black" d="M345.57,-438.81C338.44,-426.83 328.74,-410.52 320.58,-396.79"/>
<polygon fill="black" stroke="black" points="323.59,-395.01 315.47,-388.21 317.58,-398.59 323.59,-395.01"/>
<text text-anchor="middle" x="347.39" y="-407.45" font-family="Times New Roman,serif" font-size="14.00">false</text>
</g>
<!-- 4 -->
<g id="node5" class="node">
<title>4</title>
<ellipse fill="none" stroke="black" cx="493.64" cy="-281.25" rx="46.07" ry="18"/>
<text text-anchor="middle" x="493.64" y="-275.82" font-family="Times New Roman,serif" font-size="14.00">m &gt; 2090</text>
</g>
<!-- 3&#45;&gt;4 -->
<g id="edge2" class="edge">
<title>3&#45;&gt;4</title>
<path fill="none" stroke="black" d="M424.63,-351.87C437.33,-339.06 455.3,-320.93 469.72,-306.39"/>
<polygon fill="black" stroke="black" points="472.11,-308.95 476.66,-299.38 467.14,-304.02 472.11,-308.95"/>
<text text-anchor="middle" x="471.39" y="-319.7" font-family="Times New Roman,serif" font-size="14.00">false</text>
</g>
<!-- 7 -->
<g id="node8" class="node">
<title>7</title>
<ellipse fill="none" stroke="black" cx="432.64" cy="-193.5" rx="43.58" ry="18"/>
<text text-anchor="middle" x="432.64" y="-188.07" font-family="Times New Roman,serif" font-size="14.00">x &lt; 1416</text>
</g>
<!-- 3&#45;&gt;7 -->
<g id="edge6" class="edge">
<title>3&#45;&gt;7</title>
<path fill="none" stroke="black" d="M409.44,-350.87C410.55,-330.06 413,-293.93 417.64,-263.25 419.67,-249.89 422.74,-235.23 425.58,-222.9"/>
<polygon fill="black" stroke="black" points="428.94,-223.91 427.84,-213.38 422.13,-222.3 428.94,-223.91"/>
<text text-anchor="middle" x="428.14" y="-275.82" font-family="Times New Roman,serif" font-size="14.00">true</text>
</g>
<!-- 4&#45;&gt;1 -->
<g id="edge7" class="edge">
<title>4&#45;&gt;1</title>
<path fill="none" stroke="black" d="M462.45,-267.68C422.04,-249.67 352.64,-212.5 317.64,-157.5 300.33,-130.29 311.04,-117.08 297.64,-87.75 290.2,-71.46 286.38,-68.33 275.64,-54 273.14,-50.67 270.42,-47.24 267.67,-43.9"/>
<polygon fill="black" stroke="black" points="270.56,-41.89 261.42,-36.52 265.21,-46.42 270.56,-41.89"/>
<text text-anchor="middle" x="328.14" y="-144.2" font-family="Times New Roman,serif" font-size="14.00">true</text>
</g>
<!-- 8 -->
<g id="node9" class="node">
<title>8</title>
<ellipse fill="none" stroke="black" cx="532.64" cy="-193.5" rx="38.59" ry="18"/>
<text text-anchor="middle" x="532.64" y="-188.07" font-family="Times New Roman,serif" font-size="14.00">s &lt; 537</text>
</g>
<!-- 4&#45;&gt;8 -->
<g id="edge8" class="edge">
<title>4&#45;&gt;8</title>
<path fill="none" stroke="black" d="M501.35,-263.31C506.74,-251.45 514.07,-235.34 520.27,-221.7"/>
<polygon fill="black" stroke="black" points="523.37,-223.34 524.33,-212.78 517,-220.44 523.37,-223.34"/>
<text text-anchor="middle" x="528.39" y="-231.95" font-family="Times New Roman,serif" font-size="14.00">false</text>
</g>
<!-- 6 -->
<g id="node7" class="node">
<title>6</title>
<ellipse fill="none" stroke="black" cx="304.64" cy="-281.25" rx="46.07" ry="18"/>
<text text-anchor="middle" x="304.64" y="-275.82" font-family="Times New Roman,serif" font-size="14.00">m &lt; 1801</text>
</g>
<!-- 5&#45;&gt;6 -->
<g id="edge4" class="edge">
<title>5&#45;&gt;6</title>
<path fill="none" stroke="black" d="M304.64,-350.65C304.64,-339.26 304.64,-324.09 304.64,-310.93"/>
<polygon fill="black" stroke="black" points="308.14,-311.09 304.64,-301.09 301.14,-311.09 308.14,-311.09"/>
<text text-anchor="middle" x="317.39" y="-319.7" font-family="Times New Roman,serif" font-size="14.00">false</text>
</g>
<!-- 10 -->
<g id="node11" class="node">
<title>10</title>
<ellipse fill="none" stroke="black" cx="81.64" cy="-193.5" rx="43.08" ry="18"/>
<text text-anchor="middle" x="81.64" y="-188.07" font-family="Times New Roman,serif" font-size="14.00">s &gt; 3448</text>
</g>
<!-- 5&#45;&gt;10 -->
<g id="edge11" class="edge">
<title>5&#45;&gt;10</title>
<path fill="none" stroke="black" d="M284.85,-352.6C245.26,-321.8 156.18,-252.49 110.24,-216.75"/>
<polygon fill="black" stroke="black" points="112.63,-214.17 102.58,-210.79 108.33,-219.69 112.63,-214.17"/>
<text text-anchor="middle" x="226.14" y="-275.82" font-family="Times New Roman,serif" font-size="14.00">true</text>
</g>
<!-- 6&#45;&gt;0 -->
<g id="edge5" class="edge">
<title>6&#45;&gt;0</title>
<path fill="none" stroke="black" d="M314.19,-263.31C337.97,-221.52 400.14,-114.91 430.64,-87.75 444,-75.85 450.89,-78.22 466.64,-69.75 484.52,-60.14 504.12,-48.91 520.27,-39.46"/>
<polygon fill="black" stroke="black" points="521.68,-42.69 528.53,-34.6 518.13,-36.65 521.68,-42.69"/>
<text text-anchor="middle" x="400.39" y="-144.2" font-family="Times New Roman,serif" font-size="14.00">false</text>
</g>
<!-- 11 -->
<g id="node12" class="node">
<title>11</title>
<ellipse fill="none" stroke="black" cx="245.64" cy="-193.5" rx="41.58" ry="18"/>
<text text-anchor="middle" x="245.64" y="-188.07" font-family="Times New Roman,serif" font-size="14.00">m &gt; 838</text>
</g>
<!-- 6&#45;&gt;11 -->
<g id="edge12" class="edge">
<title>6&#45;&gt;11</title>
<path fill="none" stroke="black" d="M293.27,-263.72C284.83,-251.46 273.17,-234.51 263.5,-220.45"/>
<polygon fill="black" stroke="black" points="266.6,-218.78 258.04,-212.52 260.83,-222.74 266.6,-218.78"/>
<text text-anchor="middle" x="290.14" y="-231.95" font-family="Times New Roman,serif" font-size="14.00">true</text>
</g>
<!-- 7&#45;&gt;1 -->
<g id="edge13" class="edge">
<title>7&#45;&gt;1</title>
<path fill="none" stroke="black" d="M426.74,-175.38C415.84,-146.28 389.87,-87.1 348.64,-54 333.89,-42.15 314.9,-34.22 297.26,-28.94"/>
<polygon fill="black" stroke="black" points="298.53,-25.66 287.96,-26.4 296.68,-32.41 298.53,-25.66"/>
<text text-anchor="middle" x="412.14" y="-100.33" font-family="Times New Roman,serif" font-size="14.00">true</text>
</g>
<!-- 12 -->
<g id="node13" class="node">
<title>12</title>
<ellipse fill="none" stroke="black" cx="588.64" cy="-105.75" rx="43.58" ry="18"/>
<text text-anchor="middle" x="588.64" y="-100.33" font-family="Times New Roman,serif" font-size="14.00">x &gt; 2662</text>
</g>
<!-- 7&#45;&gt;12 -->
<g id="edge14" class="edge">
<title>7&#45;&gt;12</title>
<path fill="none" stroke="black" d="M441.59,-175.54C448.3,-164.38 458.5,-150.3 471.14,-141.75 496.15,-124.83 507.73,-132.44 536.64,-123.75 539.21,-122.98 541.85,-122.17 544.51,-121.34"/>
<polygon fill="black" stroke="black" points="545.52,-124.69 553.99,-118.33 543.4,-118.02 545.52,-124.69"/>
<text text-anchor="middle" x="483.39" y="-144.2" font-family="Times New Roman,serif" font-size="14.00">false</text>
</g>
<!-- 9 -->
<g id="node10" class="node">
<title>9</title>
<ellipse fill="none" stroke="black" cx="483.64" cy="-105.75" rx="43.58" ry="18"/>
<text text-anchor="middle" x="483.64" y="-100.33" font-family="Times New Roman,serif" font-size="14.00">x &gt; 2440</text>
</g>
<!-- 8&#45;&gt;9 -->
<g id="edge9" class="edge">
<title>8&#45;&gt;9</title>
<path fill="none" stroke="black" d="M520.97,-176.04C517.05,-170.28 512.76,-163.69 509.14,-157.5 504.7,-149.89 500.25,-141.41 496.34,-133.59"/>
<polygon fill="black" stroke="black" points="499.6,-132.29 492.06,-124.84 493.31,-135.37 499.6,-132.29"/>
<text text-anchor="middle" x="521.39" y="-144.2" font-family="Times New Roman,serif" font-size="14.00">false</text>
</g>
<!-- 13 -->
<g id="node14" class="node">
<title>13</title>
<ellipse fill="none" stroke="black" cx="693.64" cy="-105.75" rx="43.08" ry="18"/>
<text text-anchor="middle" x="693.64" y="-100.33" font-family="Times New Roman,serif" font-size="14.00">a &gt; 3333</text>
</g>
<!-- 8&#45;&gt;13 -->
<g id="edge16" class="edge">
<title>8&#45;&gt;13</title>
<path fill="none" stroke="black" d="M557.45,-179.29C584.31,-164.98 627.41,-142.03 657.92,-125.78"/>
<polygon fill="black" stroke="black" points="659.23,-129.05 666.41,-121.26 655.94,-122.87 659.23,-129.05"/>
<text text-anchor="middle" x="637.14" y="-144.2" font-family="Times New Roman,serif" font-size="14.00">true</text>
</g>
<!-- 9&#45;&gt;0 -->
<g id="edge18" class="edge">
<title>9&#45;&gt;0</title>
<path fill="none" stroke="black" d="M497.33,-88.22C507.65,-75.76 521.97,-58.46 533.72,-44.27"/>
<polygon fill="black" stroke="black" points="536.35,-46.58 540.03,-36.65 530.96,-42.12 536.35,-46.58"/>
<text text-anchor="middle" x="535.14" y="-56.45" font-family="Times New Roman,serif" font-size="14.00">true</text>
</g>
<!-- 9&#45;&gt;1 -->
<g id="edge10" class="edge">
<title>9&#45;&gt;1</title>
<path fill="none" stroke="black" d="M451.3,-93.48C434.73,-87.25 414.46,-78.93 397.14,-69.75 386.03,-63.86 385.08,-59.23 373.64,-54 349.4,-42.92 320.94,-34.71 297.01,-29.03"/>
<polygon fill="black" stroke="black" points="298.02,-25.68 287.49,-26.86 296.46,-32.5 298.02,-25.68"/>
<text text-anchor="middle" x="409.39" y="-56.45" font-family="Times New Roman,serif" font-size="14.00">false</text>
</g>
<!-- 10&#45;&gt;1 -->
<g id="edge19" class="edge">
<title>10&#45;&gt;1</title>
<path fill="none" stroke="black" d="M57.94,-178.07C28.6,-158.3 -15.1,-121.42 5.64,-87.75 25.24,-55.94 127.28,-35.79 191.84,-26.03"/>
<polygon fill="black" stroke="black" points="192.16,-29.52 201.54,-24.6 191.14,-22.6 192.16,-29.52"/>
<text text-anchor="middle" x="16.14" y="-100.33" font-family="Times New Roman,serif" font-size="14.00">true</text>
</g>
<!-- 14 -->
<g id="node15" class="node">
<title>14</title>
<ellipse fill="none" stroke="black" cx="81.64" cy="-105.75" rx="46.07" ry="18"/>
<text text-anchor="middle" x="81.64" y="-100.33" font-family="Times New Roman,serif" font-size="14.00">m &gt; 1548</text>
</g>
<!-- 10&#45;&gt;14 -->
<g id="edge20" class="edge">
<title>10&#45;&gt;14</title>
<path fill="none" stroke="black" d="M81.64,-175.15C81.64,-163.76 81.64,-148.59 81.64,-135.43"/>
<polygon fill="black" stroke="black" points="85.14,-135.59 81.64,-125.59 78.14,-135.59 85.14,-135.59"/>
<text text-anchor="middle" x="94.39" y="-144.2" font-family="Times New Roman,serif" font-size="14.00">false</text>
</g>
<!-- 11&#45;&gt;1 -->
<g id="edge22" class="edge">
<title>11&#45;&gt;1</title>
<path fill="none" stroke="black" d="M222.37,-178.25C205.05,-166.16 182.72,-147.08 172.64,-123.75 166.3,-109.06 166.3,-102.44 172.64,-87.75 180.93,-68.56 197.51,-52.24 212.77,-40.33"/>
<polygon fill="black" stroke="black" points="214.84,-43.15 220.8,-34.4 210.68,-37.53 214.84,-43.15"/>
<text text-anchor="middle" x="183.14" y="-100.33" font-family="Times New Roman,serif" font-size="14.00">true</text>
</g>
<!-- 15 -->
<g id="node16" class="node">
<title>15</title>
<ellipse fill="none" stroke="black" cx="245.64" cy="-105.75" rx="43.08" ry="18"/>
<text text-anchor="middle" x="245.64" y="-100.33" font-family="Times New Roman,serif" font-size="14.00">a &gt; 1716</text>
</g>
<!-- 11&#45;&gt;15 -->
<g id="edge23" class="edge">
<title>11&#45;&gt;15</title>
<path fill="none" stroke="black" d="M245.64,-175.15C245.64,-163.76 245.64,-148.59 245.64,-135.43"/>
<polygon fill="black" stroke="black" points="249.14,-135.59 245.64,-125.59 242.14,-135.59 249.14,-135.59"/>
<text text-anchor="middle" x="258.39" y="-144.2" font-family="Times New Roman,serif" font-size="14.00">false</text>
</g>
<!-- 12&#45;&gt;0 -->
<g id="edge15" class="edge">
<title>12&#45;&gt;0</title>
<path fill="none" stroke="black" d="M581.93,-87.81C577.3,-76.14 571.05,-60.37 565.69,-46.87"/>
<polygon fill="black" stroke="black" points="568.96,-45.61 562.02,-37.61 562.45,-48.19 568.96,-45.61"/>
<text text-anchor="middle" x="587.39" y="-56.45" font-family="Times New Roman,serif" font-size="14.00">false</text>
</g>
<!-- 12&#45;&gt;1 -->
<g id="edge25" class="edge">
<title>12&#45;&gt;1</title>
<path fill="none" stroke="black" d="M555.4,-93.73C549.18,-91.71 542.72,-89.64 536.64,-87.75 486.19,-72.04 473.95,-66.64 422.64,-54 380.93,-43.72 333.1,-34.41 297.69,-27.98"/>
<polygon fill="black" stroke="black" points="298.61,-24.59 288.14,-26.27 297.37,-31.48 298.61,-24.59"/>
<text text-anchor="middle" x="490.14" y="-56.45" font-family="Times New Roman,serif" font-size="14.00">true</text>
</g>
<!-- 13&#45;&gt;0 -->
<g id="edge17" class="edge">
<title>13&#45;&gt;0</title>
<path fill="none" stroke="black" d="M670.06,-90.2C647.64,-76.37 613.66,-55.41 588.37,-39.81"/>
<polygon fill="black" stroke="black" points="590.44,-36.97 580.09,-34.7 586.77,-42.93 590.44,-36.97"/>
<text text-anchor="middle" x="648.39" y="-56.45" font-family="Times New Roman,serif" font-size="14.00">false</text>
</g>
<!-- 13&#45;&gt;0 -->
<g id="edge26" class="edge">
<title>13&#45;&gt;0</title>
<path fill="none" stroke="black" d="M687.93,-87.47C683.47,-76.45 676.23,-62.67 665.64,-54 649.96,-41.16 629.52,-33.01 610.47,-27.84"/>
<polygon fill="black" stroke="black" points="611.47,-24.49 600.92,-25.49 609.8,-31.28 611.47,-24.49"/>
<text text-anchor="middle" x="689.14" y="-56.45" font-family="Times New Roman,serif" font-size="14.00">true</text>
</g>
<!-- 14&#45;&gt;1 -->
<g id="edge21" class="edge">
<title>14&#45;&gt;1</title>
<path fill="none" stroke="black" d="M91.94,-87.86C99.54,-76.72 110.85,-62.65 124.14,-54 144.52,-40.73 170.02,-32.39 192.38,-27.2"/>
<polygon fill="black" stroke="black" points="192.89,-30.67 201.93,-25.15 191.42,-23.83 192.89,-30.67"/>
<text text-anchor="middle" x="137.39" y="-56.45" font-family="Times New Roman,serif" font-size="14.00">false</text>
</g>
<!-- 14&#45;&gt;1 -->
<g id="edge27" class="edge">
<title>14&#45;&gt;1</title>
<path fill="none" stroke="black" d="M76.58,-87.41C74.57,-76.65 74.22,-63.18 81.64,-54 95.23,-37.21 148.17,-28.12 190.28,-23.45"/>
<polygon fill="black" stroke="black" points="190.46,-26.95 200.04,-22.43 189.73,-19.99 190.46,-26.95"/>
<text text-anchor="middle" x="92.14" y="-56.45" font-family="Times New Roman,serif" font-size="14.00">true</text>
</g>
<!-- 15&#45;&gt;0 -->
<g id="edge28" class="edge">
<title>15&#45;&gt;0</title>
<path fill="none" stroke="black" d="M269.77,-90.36C290.13,-78.84 320.38,-63.15 348.64,-54 397.38,-38.22 455.04,-29.2 496.94,-24.28"/>
<polygon fill="black" stroke="black" points="497.27,-27.77 506.82,-23.17 496.49,-20.81 497.27,-27.77"/>
<text text-anchor="middle" x="359.14" y="-56.45" font-family="Times New Roman,serif" font-size="14.00">true</text>
</g>
<!-- 15&#45;&gt;1 -->
<g id="edge24" class="edge">
<title>15&#45;&gt;1</title>
<path fill="none" stroke="black" d="M245.64,-87.4C245.64,-76.01 245.64,-60.84 245.64,-47.68"/>
<polygon fill="black" stroke="black" points="249.14,-47.84 245.64,-37.84 242.14,-47.84 249.14,-47.84"/>
<text text-anchor="middle" x="258.39" y="-56.45" font-family="Times New Roman,serif" font-size="14.00">false</text>
</g>
</g>
</svg>
