<?xml version="1.0" encoding="UTF-8" standalone="no"?>
<!DOCTYPE svg PUBLIC "-//W3C//DTD SVG 1.1//EN"
 "http://www.w3.org/Graphics/SVG/1.1/DTD/svg11.dtd">
<!-- Generated by graphviz version 2.43.0 (0)
 -->
<!-- Title: %3 Pages: 1 -->
<svg width="1486pt" height="1175pt"
 viewBox="0.00 0.00 1486.03 1175.00" xmlns="http://www.w3.org/2000/svg" xmlns:xlink="http://www.w3.org/1999/xlink">
<g id="graph0" class="graph" transform="scale(1 1) rotate(0) translate(4 1171)">
<title>%3</title>
<polygon fill="white" stroke="transparent" points="-4,4 -4,-1171 1482.03,-1171 1482.03,4 -4,4"/>
<!-- 0 -->
<g id="node1" class="node">
<title>0</title>
<ellipse fill="none" stroke="black" cx="966.94" cy="-1149" rx="108.58" ry="18"/>
<text text-anchor="middle" x="966.94" y="-1145.3" font-family="Times,serif" font-size="14.00">Position { x: 2, y: 1 }</text>
</g>
<!-- 1 -->
<g id="node2" class="node">
<title>1</title>
<ellipse fill="none" stroke="black" cx="966.94" cy="-1062" rx="114.28" ry="18"/>
<text text-anchor="middle" x="966.94" y="-1058.3" font-family="Times,serif" font-size="14.00">Position { x: 6, y: 20 }</text>
</g>
<!-- 0&#45;&#45;1 -->
<g id="edge1" class="edge">
<title>0&#45;&#45;1</title>
<path fill="none" stroke="black" d="M966.94,-1130.8C966.94,-1116.05 966.94,-1094.92 966.94,-1080.18"/>
<text text-anchor="middle" x="980.94" y="-1101.8" font-family="Times,serif" font-size="14.00">147</text>
</g>
<!-- 2 -->
<g id="node3" class="node">
<title>2</title>
<ellipse fill="none" stroke="black" cx="888.94" cy="-975" rx="120.48" ry="18"/>
<text text-anchor="middle" x="888.94" y="-971.3" font-family="Times,serif" font-size="14.00">Position { x: 20, y: 36 }</text>
</g>
<!-- 1&#45;&#45;2 -->
<g id="edge2" class="edge">
<title>1&#45;&#45;2</title>
<path fill="none" stroke="black" d="M951.15,-1043.8C937.53,-1028.95 917.97,-1007.64 904.43,-992.89"/>
<text text-anchor="middle" x="945.94" y="-1014.8" font-family="Times,serif" font-size="14.00">154</text>
</g>
<!-- 3 -->
<g id="node4" class="node">
<title>3</title>
<ellipse fill="none" stroke="black" cx="1045.94" cy="-888" rx="120.48" ry="18"/>
<text text-anchor="middle" x="1045.94" y="-884.3" font-family="Times,serif" font-size="14.00">Position { x: 38, y: 20 }</text>
</g>
<!-- 1&#45;&#45;3 -->
<g id="edge3" class="edge">
<title>1&#45;&#45;3</title>
<path fill="none" stroke="black" d="M982.58,-1044.04C993.87,-1030.97 1008.7,-1011.97 1017.94,-993 1031.94,-964.25 1039.73,-927.51 1043.36,-906.28"/>
<text text-anchor="middle" x="1044.94" y="-971.3" font-family="Times,serif" font-size="14.00">216</text>
</g>
<!-- 4 -->
<g id="node5" class="node">
<title>4</title>
<ellipse fill="none" stroke="black" cx="727.94" cy="-888" rx="120.48" ry="18"/>
<text text-anchor="middle" x="727.94" y="-884.3" font-family="Times,serif" font-size="14.00">Position { x: 16, y: 68 }</text>
</g>
<!-- 2&#45;&#45;4 -->
<g id="edge4" class="edge">
<title>2&#45;&#45;4</title>
<path fill="none" stroke="black" d="M857.51,-957.41C829.05,-942.38 787.36,-920.37 759.01,-905.4"/>
<text text-anchor="middle" x="831.94" y="-927.8" font-family="Times,serif" font-size="14.00">296</text>
</g>
<!-- 5 -->
<g id="node6" class="node">
<title>5</title>
<ellipse fill="none" stroke="black" cx="893.94" cy="-801" rx="120.48" ry="18"/>
<text text-anchor="middle" x="893.94" y="-797.3" font-family="Times,serif" font-size="14.00">Position { x: 34, y: 30 }</text>
</g>
<!-- 2&#45;&#45;5 -->
<g id="edge5" class="edge">
<title>2&#45;&#45;5</title>
<path fill="none" stroke="black" d="M889.44,-956.88C890.39,-923.91 892.49,-851.97 893.44,-819.05"/>
<text text-anchor="middle" x="900.44" y="-884.3" font-family="Times,serif" font-size="14.00">64</text>
</g>
<!-- 3&#45;&#45;5 -->
<g id="edge6" class="edge">
<title>3&#45;&#45;5</title>
<path fill="none" stroke="black" d="M1016.27,-870.41C989.49,-855.43 950.29,-833.51 923.53,-818.55"/>
<text text-anchor="middle" x="988.44" y="-840.8" font-family="Times,serif" font-size="14.00">14</text>
</g>
<!-- 6 -->
<g id="node7" class="node">
<title>6</title>
<ellipse fill="none" stroke="black" cx="1151.94" cy="-801" rx="120.48" ry="18"/>
<text text-anchor="middle" x="1151.94" y="-797.3" font-family="Times,serif" font-size="14.00">Position { x: 56, y: 12 }</text>
</g>
<!-- 3&#45;&#45;6 -->
<g id="edge7" class="edge">
<title>3&#45;&#45;6</title>
<path fill="none" stroke="black" d="M1066.88,-870.21C1085.46,-855.31 1112.47,-833.65 1131.04,-818.76"/>
<text text-anchor="middle" x="1118.94" y="-840.8" font-family="Times,serif" font-size="14.00">226</text>
</g>
<!-- 7 -->
<g id="node8" class="node">
<title>7</title>
<ellipse fill="none" stroke="black" cx="566.94" cy="-801" rx="120.48" ry="18"/>
<text text-anchor="middle" x="566.94" y="-797.3" font-family="Times,serif" font-size="14.00">Position { x: 10, y: 84 }</text>
</g>
<!-- 4&#45;&#45;7 -->
<g id="edge8" class="edge">
<title>4&#45;&#45;7</title>
<path fill="none" stroke="black" d="M696.51,-870.41C668.05,-855.38 626.36,-833.37 598.01,-818.4"/>
<text text-anchor="middle" x="670.94" y="-840.8" font-family="Times,serif" font-size="14.00">126</text>
</g>
<!-- 8 -->
<g id="node9" class="node">
<title>8</title>
<ellipse fill="none" stroke="black" cx="732.94" cy="-714" rx="120.48" ry="18"/>
<text text-anchor="middle" x="732.94" y="-710.3" font-family="Times,serif" font-size="14.00">Position { x: 44, y: 68 }</text>
</g>
<!-- 4&#45;&#45;8 -->
<g id="edge9" class="edge">
<title>4&#45;&#45;8</title>
<path fill="none" stroke="black" d="M728.44,-869.88C729.39,-836.91 731.49,-764.97 732.44,-732.05"/>
<text text-anchor="middle" x="743.94" y="-797.3" font-family="Times,serif" font-size="14.00">128</text>
</g>
<!-- 5&#45;&#45;8 -->
<g id="edge10" class="edge">
<title>5&#45;&#45;8</title>
<path fill="none" stroke="black" d="M862.51,-783.41C834.05,-768.38 792.36,-746.37 764.01,-731.4"/>
<text text-anchor="middle" x="836.94" y="-753.8" font-family="Times,serif" font-size="14.00">308</text>
</g>
<!-- 9 -->
<g id="node10" class="node">
<title>9</title>
<ellipse fill="none" stroke="black" cx="990.94" cy="-714" rx="120.48" ry="18"/>
<text text-anchor="middle" x="990.94" y="-710.3" font-family="Times,serif" font-size="14.00">Position { x: 58, y: 44 }</text>
</g>
<!-- 5&#45;&#45;9 -->
<g id="edge11" class="edge">
<title>5&#45;&#45;9</title>
<path fill="none" stroke="black" d="M913.1,-783.21C930,-768.4 954.5,-746.93 971.48,-732.05"/>
<text text-anchor="middle" x="961.94" y="-753.8" font-family="Times,serif" font-size="14.00">110</text>
</g>
<!-- 6&#45;&#45;9 -->
<g id="edge12" class="edge">
<title>6&#45;&#45;9</title>
<path fill="none" stroke="black" d="M1120.51,-783.41C1092.05,-768.38 1050.36,-746.37 1022.01,-731.4"/>
<text text-anchor="middle" x="1094.94" y="-753.8" font-family="Times,serif" font-size="14.00">178</text>
</g>
<!-- 10 -->
<g id="node11" class="node">
<title>10</title>
<ellipse fill="none" stroke="black" cx="1243.94" cy="-714" rx="114.28" ry="18"/>
<text text-anchor="middle" x="1243.94" y="-710.3" font-family="Times,serif" font-size="14.00">Position { x: 86, y: 6 }</text>
</g>
<!-- 6&#45;&#45;10 -->
<g id="edge13" class="edge">
<title>6&#45;&#45;10</title>
<path fill="none" stroke="black" d="M1170.11,-783.21C1186.14,-768.4 1209.38,-746.93 1225.48,-732.05"/>
<text text-anchor="middle" x="1216.94" y="-753.8" font-family="Times,serif" font-size="14.00">188</text>
</g>
<!-- 11 -->
<g id="node12" class="node">
<title>11</title>
<ellipse fill="none" stroke="black" cx="405.94" cy="-714" rx="120.48" ry="18"/>
<text text-anchor="middle" x="405.94" y="-710.3" font-family="Times,serif" font-size="14.00">Position { x: 6, y: 104 }</text>
</g>
<!-- 7&#45;&#45;11 -->
<g id="edge14" class="edge">
<title>7&#45;&#45;11</title>
<path fill="none" stroke="black" d="M535.51,-783.41C507.05,-768.38 465.36,-746.37 437.01,-731.4"/>
<text text-anchor="middle" x="509.94" y="-753.8" font-family="Times,serif" font-size="14.00">136</text>
</g>
<!-- 12 -->
<g id="node13" class="node">
<title>12</title>
<ellipse fill="none" stroke="black" cx="571.94" cy="-627" rx="120.48" ry="18"/>
<text text-anchor="middle" x="571.94" y="-623.3" font-family="Times,serif" font-size="14.00">Position { x: 38, y: 76 }</text>
</g>
<!-- 7&#45;&#45;12 -->
<g id="edge15" class="edge">
<title>7&#45;&#45;12</title>
<path fill="none" stroke="black" d="M567.44,-782.88C568.39,-749.91 570.49,-677.97 571.44,-645.05"/>
<text text-anchor="middle" x="582.94" y="-710.3" font-family="Times,serif" font-size="14.00">156</text>
</g>
<!-- 8&#45;&#45;12 -->
<g id="edge16" class="edge">
<title>8&#45;&#45;12</title>
<path fill="none" stroke="black" d="M701.51,-696.41C673.05,-681.38 631.36,-659.37 603.01,-644.4"/>
<text text-anchor="middle" x="671.44" y="-666.8" font-family="Times,serif" font-size="14.00">46</text>
</g>
<!-- 13 -->
<g id="node14" class="node">
<title>13</title>
<ellipse fill="none" stroke="black" cx="829.94" cy="-627" rx="120.48" ry="18"/>
<text text-anchor="middle" x="829.94" y="-623.3" font-family="Times,serif" font-size="14.00">Position { x: 60, y: 58 }</text>
</g>
<!-- 8&#45;&#45;13 -->
<g id="edge17" class="edge">
<title>8&#45;&#45;13</title>
<path fill="none" stroke="black" d="M752.1,-696.21C769,-681.4 793.5,-659.93 810.48,-645.05"/>
<text text-anchor="middle" x="796.44" y="-666.8" font-family="Times,serif" font-size="14.00">86</text>
</g>
<!-- 9&#45;&#45;13 -->
<g id="edge18" class="edge">
<title>9&#45;&#45;13</title>
<path fill="none" stroke="black" d="M959.51,-696.41C931.05,-681.38 889.36,-659.37 861.01,-644.4"/>
<text text-anchor="middle" x="929.44" y="-666.8" font-family="Times,serif" font-size="14.00">60</text>
</g>
<!-- 14 -->
<g id="node15" class="node">
<title>14</title>
<ellipse fill="none" stroke="black" cx="1087.94" cy="-627" rx="120.48" ry="18"/>
<text text-anchor="middle" x="1087.94" y="-623.3" font-family="Times,serif" font-size="14.00">Position { x: 82, y: 40 }</text>
</g>
<!-- 9&#45;&#45;14 -->
<g id="edge19" class="edge">
<title>9&#45;&#45;14</title>
<path fill="none" stroke="black" d="M1010.1,-696.21C1027,-681.4 1051.5,-659.93 1068.48,-645.05"/>
<text text-anchor="middle" x="1058.94" y="-666.8" font-family="Times,serif" font-size="14.00">152</text>
</g>
<!-- 10&#45;&#45;14 -->
<g id="edge20" class="edge">
<title>10&#45;&#45;14</title>
<path fill="none" stroke="black" d="M1213.86,-696.61C1186.32,-681.61 1145.78,-659.52 1118.19,-644.48"/>
<text text-anchor="middle" x="1188.94" y="-666.8" font-family="Times,serif" font-size="14.00">250</text>
</g>
<!-- 15 -->
<g id="node16" class="node">
<title>15</title>
<ellipse fill="none" stroke="black" cx="1351.94" cy="-627" rx="126.18" ry="18"/>
<text text-anchor="middle" x="1351.94" y="-623.3" font-family="Times,serif" font-size="14.00">Position { x: 110, y: 14 }</text>
</g>
<!-- 10&#45;&#45;15 -->
<g id="edge21" class="edge">
<title>10&#45;&#45;15</title>
<path fill="none" stroke="black" d="M1265.28,-696.21C1284.21,-681.31 1311.72,-659.65 1330.65,-644.76"/>
<text text-anchor="middle" x="1317.94" y="-666.8" font-family="Times,serif" font-size="14.00">196</text>
</g>
<!-- 16 -->
<g id="node17" class="node">
<title>16</title>
<ellipse fill="none" stroke="black" cx="243.94" cy="-627" rx="126.18" ry="18"/>
<text text-anchor="middle" x="243.94" y="-623.3" font-family="Times,serif" font-size="14.00">Position { x: 38, y: 132 }</text>
</g>
<!-- 11&#45;&#45;16 -->
<g id="edge22" class="edge">
<title>11&#45;&#45;16</title>
<path fill="none" stroke="black" d="M374.7,-696.61C346.11,-681.61 304,-659.52 275.35,-644.48"/>
<text text-anchor="middle" x="348.94" y="-666.8" font-family="Times,serif" font-size="14.00">472</text>
</g>
<!-- 17 -->
<g id="node18" class="node">
<title>17</title>
<ellipse fill="none" stroke="black" cx="405.94" cy="-540" rx="126.18" ry="18"/>
<text text-anchor="middle" x="405.94" y="-536.3" font-family="Times,serif" font-size="14.00">Position { x: 38, y: 110 }</text>
</g>
<!-- 11&#45;&#45;17 -->
<g id="edge23" class="edge">
<title>11&#45;&#45;17</title>
<path fill="none" stroke="black" d="M405.94,-695.88C405.94,-662.91 405.94,-590.97 405.94,-558.05"/>
<text text-anchor="middle" x="419.94" y="-623.3" font-family="Times,serif" font-size="14.00">238</text>
</g>
<!-- 12&#45;&#45;17 -->
<g id="edge24" class="edge">
<title>12&#45;&#45;17</title>
<path fill="none" stroke="black" d="M539.93,-609.61C510.63,-594.61 467.49,-572.52 438.13,-557.48"/>
<text text-anchor="middle" x="511.94" y="-579.8" font-family="Times,serif" font-size="14.00">218</text>
</g>
<!-- 18 -->
<g id="node19" class="node">
<title>18</title>
<ellipse fill="none" stroke="black" cx="669.94" cy="-540" rx="120.48" ry="18"/>
<text text-anchor="middle" x="669.94" y="-536.3" font-family="Times,serif" font-size="14.00">Position { x: 56, y: 84 }</text>
</g>
<!-- 12&#45;&#45;18 -->
<g id="edge25" class="edge">
<title>12&#45;&#45;18</title>
<path fill="none" stroke="black" d="M591.3,-609.21C608.37,-594.4 633.12,-572.93 650.28,-558.05"/>
<text text-anchor="middle" x="635.44" y="-579.8" font-family="Times,serif" font-size="14.00">66</text>
</g>
<!-- 13&#45;&#45;18 -->
<g id="edge26" class="edge">
<title>13&#45;&#45;18</title>
<path fill="none" stroke="black" d="M798.71,-609.41C770.43,-594.38 728.99,-572.37 700.82,-557.4"/>
<text text-anchor="middle" x="768.44" y="-579.8" font-family="Times,serif" font-size="14.00">98</text>
</g>
<!-- 19 -->
<g id="node20" class="node">
<title>19</title>
<ellipse fill="none" stroke="black" cx="927.94" cy="-540" rx="120.48" ry="18"/>
<text text-anchor="middle" x="927.94" y="-536.3" font-family="Times,serif" font-size="14.00">Position { x: 86, y: 68 }</text>
</g>
<!-- 13&#45;&#45;19 -->
<g id="edge27" class="edge">
<title>13&#45;&#45;19</title>
<path fill="none" stroke="black" d="M849.3,-609.21C866.37,-594.4 891.12,-572.93 908.28,-558.05"/>
<text text-anchor="middle" x="897.94" y="-579.8" font-family="Times,serif" font-size="14.00">204</text>
</g>
<!-- 14&#45;&#45;19 -->
<g id="edge28" class="edge">
<title>14&#45;&#45;19</title>
<path fill="none" stroke="black" d="M1056.71,-609.41C1028.43,-594.38 986.99,-572.37 958.82,-557.4"/>
<text text-anchor="middle" x="1030.94" y="-579.8" font-family="Times,serif" font-size="14.00">152</text>
</g>
<!-- 20 -->
<g id="node21" class="node">
<title>20</title>
<ellipse fill="none" stroke="black" cx="1191.94" cy="-540" rx="126.18" ry="18"/>
<text text-anchor="middle" x="1191.94" y="-536.3" font-family="Times,serif" font-size="14.00">Position { x: 108, y: 32 }</text>
</g>
<!-- 14&#45;&#45;20 -->
<g id="edge29" class="edge">
<title>14&#45;&#45;20</title>
<path fill="none" stroke="black" d="M1108.49,-609.21C1126.6,-594.4 1152.87,-572.93 1171.08,-558.05"/>
<text text-anchor="middle" x="1159.94" y="-579.8" font-family="Times,serif" font-size="14.00">162</text>
</g>
<!-- 15&#45;&#45;20 -->
<g id="edge30" class="edge">
<title>15&#45;&#45;20</title>
<path fill="none" stroke="black" d="M1320.71,-609.41C1292.52,-594.43 1251.26,-572.51 1223.09,-557.55"/>
<text text-anchor="middle" x="1290.44" y="-579.8" font-family="Times,serif" font-size="14.00">88</text>
</g>
<!-- 21 -->
<g id="node22" class="node">
<title>21</title>
<ellipse fill="none" stroke="black" cx="1203.94" cy="-453" rx="126.18" ry="18"/>
<text text-anchor="middle" x="1203.94" y="-449.3" font-family="Times,serif" font-size="14.00">Position { x: 126, y: 38 }</text>
</g>
<!-- 15&#45;&#45;21 -->
<g id="edge31" class="edge">
<title>15&#45;&#45;21</title>
<path fill="none" stroke="black" d="M1351.91,-608.74C1351.03,-586.51 1346.51,-547.71 1326.94,-522 1308.24,-497.44 1277.99,-480.55 1252.16,-469.75"/>
<text text-anchor="middle" x="1356.94" y="-536.3" font-family="Times,serif" font-size="14.00">396</text>
</g>
<!-- 16&#45;&#45;17 -->
<g id="edge32" class="edge">
<title>16&#45;&#45;17</title>
<path fill="none" stroke="black" d="M275.56,-609.41C304.1,-594.43 345.88,-572.51 374.4,-557.55"/>
<text text-anchor="middle" x="344.44" y="-579.8" font-family="Times,serif" font-size="14.00">78</text>
</g>
<!-- 22 -->
<g id="node23" class="node">
<title>22</title>
<ellipse fill="none" stroke="black" cx="135.94" cy="-540" rx="126.18" ry="18"/>
<text text-anchor="middle" x="135.94" y="-536.3" font-family="Times,serif" font-size="14.00">Position { x: 68, y: 130 }</text>
</g>
<!-- 16&#45;&#45;22 -->
<g id="edge33" class="edge">
<title>16&#45;&#45;22</title>
<path fill="none" stroke="black" d="M222.6,-609.21C203.67,-594.31 176.15,-572.65 157.23,-557.76"/>
<text text-anchor="middle" x="210.94" y="-579.8" font-family="Times,serif" font-size="14.00">256</text>
</g>
<!-- 23 -->
<g id="node24" class="node">
<title>23</title>
<ellipse fill="none" stroke="black" cx="405.94" cy="-453" rx="126.18" ry="18"/>
<text text-anchor="middle" x="405.94" y="-449.3" font-family="Times,serif" font-size="14.00">Position { x: 58, y: 110 }</text>
</g>
<!-- 17&#45;&#45;23 -->
<g id="edge34" class="edge">
<title>17&#45;&#45;23</title>
<path fill="none" stroke="black" d="M405.94,-521.8C405.94,-507.05 405.94,-485.92 405.94,-471.18"/>
<text text-anchor="middle" x="419.94" y="-492.8" font-family="Times,serif" font-size="14.00">124</text>
</g>
<!-- 18&#45;&#45;23 -->
<g id="edge35" class="edge">
<title>18&#45;&#45;23</title>
<path fill="none" stroke="black" d="M621.52,-523.41C574.03,-508.12 502.03,-484.94 454.5,-469.64"/>
<text text-anchor="middle" x="566.94" y="-492.8" font-family="Times,serif" font-size="14.00">116</text>
</g>
<!-- 24 -->
<g id="node25" class="node">
<title>24</title>
<ellipse fill="none" stroke="black" cx="669.94" cy="-453" rx="120.48" ry="18"/>
<text text-anchor="middle" x="669.94" y="-449.3" font-family="Times,serif" font-size="14.00">Position { x: 88, y: 88 }</text>
</g>
<!-- 18&#45;&#45;24 -->
<g id="edge36" class="edge">
<title>18&#45;&#45;24</title>
<path fill="none" stroke="black" d="M669.94,-521.8C669.94,-507.05 669.94,-485.92 669.94,-471.18"/>
<text text-anchor="middle" x="683.94" y="-492.8" font-family="Times,serif" font-size="14.00">184</text>
</g>
<!-- 19&#45;&#45;24 -->
<g id="edge37" class="edge">
<title>19&#45;&#45;24</title>
<path fill="none" stroke="black" d="M880.62,-523.41C834.21,-508.12 763.85,-484.94 717.4,-469.64"/>
<text text-anchor="middle" x="823.44" y="-492.8" font-family="Times,serif" font-size="14.00">90</text>
</g>
<!-- 25 -->
<g id="node26" class="node">
<title>25</title>
<ellipse fill="none" stroke="black" cx="933.94" cy="-453" rx="126.18" ry="18"/>
<text text-anchor="middle" x="933.94" y="-449.3" font-family="Times,serif" font-size="14.00">Position { x: 104, y: 54 }</text>
</g>
<!-- 19&#45;&#45;25 -->
<g id="edge38" class="edge">
<title>19&#45;&#45;25</title>
<path fill="none" stroke="black" d="M929.15,-521.8C930.19,-507.05 931.69,-485.92 932.73,-471.18"/>
<text text-anchor="middle" x="940.44" y="-492.8" font-family="Times,serif" font-size="14.00">80</text>
</g>
<!-- 20&#45;&#45;21 -->
<g id="edge40" class="edge">
<title>20&#45;&#45;21</title>
<path fill="none" stroke="black" d="M1194.37,-521.8C1196.45,-507.05 1199.43,-485.92 1201.51,-471.18"/>
<text text-anchor="middle" x="1207.44" y="-492.8" font-family="Times,serif" font-size="14.00">96</text>
</g>
<!-- 20&#45;&#45;25 -->
<g id="edge39" class="edge">
<title>20&#45;&#45;25</title>
<path fill="none" stroke="black" d="M1144.32,-523.31C1098.02,-508.06 1028.07,-485.01 981.72,-469.74"/>
<text text-anchor="middle" x="1091.94" y="-492.8" font-family="Times,serif" font-size="14.00">130</text>
</g>
<!-- 26 -->
<g id="node27" class="node">
<title>26</title>
<ellipse fill="none" stroke="black" cx="947.94" cy="-366" rx="126.18" ry="18"/>
<text text-anchor="middle" x="947.94" y="-362.3" font-family="Times,serif" font-size="14.00">Position { x: 136, y: 68 }</text>
</g>
<!-- 21&#45;&#45;26 -->
<g id="edge41" class="edge">
<title>21&#45;&#45;26</title>
<path fill="none" stroke="black" d="M1156.69,-436.31C1110.74,-421.06 1041.34,-398.01 995.35,-382.74"/>
<text text-anchor="middle" x="1104.94" y="-405.8" font-family="Times,serif" font-size="14.00">288</text>
</g>
<!-- 22&#45;&#45;23 -->
<g id="edge42" class="edge">
<title>22&#45;&#45;23</title>
<path fill="none" stroke="black" d="M185.46,-523.41C234.02,-508.12 307.66,-484.94 356.27,-469.64"/>
<text text-anchor="middle" x="301.94" y="-492.8" font-family="Times,serif" font-size="14.00">126</text>
</g>
<!-- 27 -->
<g id="node28" class="node">
<title>27</title>
<ellipse fill="none" stroke="black" cx="135.94" cy="-453" rx="126.18" ry="18"/>
<text text-anchor="middle" x="135.94" y="-449.3" font-family="Times,serif" font-size="14.00">Position { x: 80, y: 126 }</text>
</g>
<!-- 22&#45;&#45;27 -->
<g id="edge43" class="edge">
<title>22&#45;&#45;27</title>
<path fill="none" stroke="black" d="M135.94,-521.8C135.94,-507.05 135.94,-485.92 135.94,-471.18"/>
<text text-anchor="middle" x="145.44" y="-492.8" font-family="Times,serif" font-size="14.00">92</text>
</g>
<!-- 28 -->
<g id="node29" class="node">
<title>28</title>
<ellipse fill="none" stroke="black" cx="407.94" cy="-366" rx="126.18" ry="18"/>
<text text-anchor="middle" x="407.94" y="-362.3" font-family="Times,serif" font-size="14.00">Position { x: 76, y: 102 }</text>
</g>
<!-- 23&#45;&#45;28 -->
<g id="edge44" class="edge">
<title>23&#45;&#45;28</title>
<path fill="none" stroke="black" d="M406.34,-434.8C406.69,-420.05 407.19,-398.92 407.53,-384.18"/>
<text text-anchor="middle" x="421.94" y="-405.8" font-family="Times,serif" font-size="14.00">126</text>
</g>
<!-- 24&#45;&#45;28 -->
<g id="edge45" class="edge">
<title>24&#45;&#45;28</title>
<path fill="none" stroke="black" d="M621.88,-436.41C574.76,-421.12 503.3,-397.94 456.13,-382.64"/>
<text text-anchor="middle" x="563.44" y="-405.8" font-family="Times,serif" font-size="14.00">66</text>
</g>
<!-- 29 -->
<g id="node30" class="node">
<title>29</title>
<ellipse fill="none" stroke="black" cx="677.94" cy="-366" rx="126.18" ry="18"/>
<text text-anchor="middle" x="677.94" y="-362.3" font-family="Times,serif" font-size="14.00">Position { x: 102, y: 86 }</text>
</g>
<!-- 24&#45;&#45;29 -->
<g id="edge46" class="edge">
<title>24&#45;&#45;29</title>
<path fill="none" stroke="black" d="M671.56,-434.8C672.95,-420.05 674.93,-398.92 676.32,-384.18"/>
<text text-anchor="middle" x="683.44" y="-405.8" font-family="Times,serif" font-size="14.00">72</text>
</g>
<!-- 25&#45;&#45;26 -->
<g id="edge48" class="edge">
<title>25&#45;&#45;26</title>
<path fill="none" stroke="black" d="M936.77,-434.8C939.2,-420.05 942.68,-398.92 945.11,-384.18"/>
<text text-anchor="middle" x="954.94" y="-405.8" font-family="Times,serif" font-size="14.00">298</text>
</g>
<!-- 25&#45;&#45;29 -->
<g id="edge47" class="edge">
<title>25&#45;&#45;29</title>
<path fill="none" stroke="black" d="M886.69,-436.31C840.74,-421.06 771.34,-398.01 725.35,-382.74"/>
<text text-anchor="middle" x="830.44" y="-405.8" font-family="Times,serif" font-size="14.00">94</text>
</g>
<!-- 30 -->
<g id="node31" class="node">
<title>30</title>
<ellipse fill="none" stroke="black" cx="679.94" cy="-279" rx="126.18" ry="18"/>
<text text-anchor="middle" x="679.94" y="-275.3" font-family="Times,serif" font-size="14.00">Position { x: 138, y: 80 }</text>
</g>
<!-- 26&#45;&#45;30 -->
<g id="edge49" class="edge">
<title>26&#45;&#45;30</title>
<path fill="none" stroke="black" d="M898.78,-349.41C850.58,-334.12 777.49,-310.94 729.24,-295.64"/>
<text text-anchor="middle" x="839.44" y="-318.8" font-family="Times,serif" font-size="14.00">38</text>
</g>
<!-- 27&#45;&#45;28 -->
<g id="edge50" class="edge">
<title>27&#45;&#45;28</title>
<path fill="none" stroke="black" d="M185.83,-436.41C234.75,-421.12 308.93,-397.94 357.91,-382.64"/>
<text text-anchor="middle" x="302.94" y="-405.8" font-family="Times,serif" font-size="14.00">100</text>
</g>
<!-- 31 -->
<g id="node32" class="node">
<title>31</title>
<ellipse fill="none" stroke="black" cx="131.94" cy="-366" rx="131.88" ry="18"/>
<text text-anchor="middle" x="131.94" y="-362.3" font-family="Times,serif" font-size="14.00">Position { x: 108, y: 128 }</text>
</g>
<!-- 27&#45;&#45;31 -->
<g id="edge51" class="edge">
<title>27&#45;&#45;31</title>
<path fill="none" stroke="black" d="M135.13,-434.8C134.43,-420.05 133.44,-398.92 132.75,-384.18"/>
<text text-anchor="middle" x="148.94" y="-405.8" font-family="Times,serif" font-size="14.00">238</text>
</g>
<!-- 32 -->
<g id="node33" class="node">
<title>32</title>
<ellipse fill="none" stroke="black" cx="403.94" cy="-279" rx="131.88" ry="18"/>
<text text-anchor="middle" x="403.94" y="-275.3" font-family="Times,serif" font-size="14.00">Position { x: 106, y: 106 }</text>
</g>
<!-- 28&#45;&#45;32 -->
<g id="edge52" class="edge">
<title>28&#45;&#45;32</title>
<path fill="none" stroke="black" d="M407.13,-347.8C406.43,-333.05 405.44,-311.92 404.75,-297.18"/>
<text text-anchor="middle" x="420.94" y="-318.8" font-family="Times,serif" font-size="14.00">174</text>
</g>
<!-- 29&#45;&#45;30 -->
<g id="edge54" class="edge">
<title>29&#45;&#45;30</title>
<path fill="none" stroke="black" d="M678.34,-347.8C678.69,-333.05 679.19,-311.92 679.53,-297.18"/>
<text text-anchor="middle" x="692.94" y="-318.8" font-family="Times,serif" font-size="14.00">190</text>
</g>
<!-- 29&#45;&#45;32 -->
<g id="edge53" class="edge">
<title>29&#45;&#45;32</title>
<path fill="none" stroke="black" d="M627.68,-349.41C578.4,-334.12 503.67,-310.94 454.34,-295.64"/>
<text text-anchor="middle" x="570.94" y="-318.8" font-family="Times,serif" font-size="14.00">156</text>
</g>
<!-- 33 -->
<g id="node34" class="node">
<title>33</title>
<ellipse fill="none" stroke="black" cx="403.94" cy="-192" rx="131.88" ry="18"/>
<text text-anchor="middle" x="403.94" y="-188.3" font-family="Times,serif" font-size="14.00">Position { x: 136, y: 110 }</text>
</g>
<!-- 30&#45;&#45;33 -->
<g id="edge55" class="edge">
<title>30&#45;&#45;33</title>
<path fill="none" stroke="black" d="M629.32,-262.41C579.67,-247.12 504.4,-223.94 454.71,-208.64"/>
<text text-anchor="middle" x="571.94" y="-231.8" font-family="Times,serif" font-size="14.00">236</text>
</g>
<!-- 31&#45;&#45;32 -->
<g id="edge56" class="edge">
<title>31&#45;&#45;32</title>
<path fill="none" stroke="black" d="M182.14,-349.31C230.96,-334.06 304.69,-311.01 353.56,-295.74"/>
<text text-anchor="middle" x="298.94" y="-318.8" font-family="Times,serif" font-size="14.00">144</text>
</g>
<!-- 34 -->
<g id="node35" class="node">
<title>34</title>
<ellipse fill="none" stroke="black" cx="204.94" cy="-105" rx="131.88" ry="18"/>
<text text-anchor="middle" x="204.94" y="-101.3" font-family="Times,serif" font-size="14.00">Position { x: 132, y: 138 }</text>
</g>
<!-- 31&#45;&#45;34 -->
<g id="edge57" class="edge">
<title>31&#45;&#45;34</title>
<path fill="none" stroke="black" d="M136.73,-348.01C149.96,-301.08 186.88,-170.06 200.13,-123.06"/>
<text text-anchor="middle" x="184.94" y="-231.8" font-family="Times,serif" font-size="14.00">186</text>
</g>
<!-- 32&#45;&#45;33 -->
<g id="edge58" class="edge">
<title>32&#45;&#45;33</title>
<path fill="none" stroke="black" d="M403.94,-260.8C403.94,-246.05 403.94,-224.92 403.94,-210.18"/>
<text text-anchor="middle" x="417.94" y="-231.8" font-family="Times,serif" font-size="14.00">126</text>
</g>
<!-- 33&#45;&#45;34 -->
<g id="edge59" class="edge">
<title>33&#45;&#45;34</title>
<path fill="none" stroke="black" d="M365.57,-174.61C330.33,-159.56 278.39,-137.37 243.19,-122.34"/>
<text text-anchor="middle" x="330.94" y="-144.8" font-family="Times,serif" font-size="14.00">192</text>
</g>
<!-- 35 -->
<g id="node36" class="node">
<title>35</title>
<ellipse fill="none" stroke="black" cx="204.94" cy="-18" rx="131.88" ry="18"/>
<text text-anchor="middle" x="204.94" y="-14.3" font-family="Times,serif" font-size="14.00">Position { x: 140, y: 141 }</text>
</g>
<!-- 34&#45;&#45;35 -->
<g id="edge60" class="edge">
<title>34&#45;&#45;35</title>
<path fill="none" stroke="black" d="M204.94,-86.8C204.94,-72.05 204.94,-50.92 204.94,-36.18"/>
<text text-anchor="middle" x="214.44" y="-57.8" font-family="Times,serif" font-size="14.00">31</text>
</g>
</g>
</svg>
